PathFileType	3	(X/Y/Z)	F:\ViconData\AntennenMessung\Messung1\Session1\ID21.trc
DataRate	CameraRate	NumFrames	NumMarkers	Units	OrigDataRate	OrigDataStartFrame	OrigNumFrames
120.0	120.0	4	70	mm	120.0	986	1126	
Frame#	Time	Ashort			Along			Atop			A4			Bshort			Blong			Btop			B4			Cshort			Clong			Ctop			C4			Dshort			Dlong			Dtop			D4			Eshort			Elong			Etop			E4			Fshort			Flong			Ftop			F4			Gshort			Glong			Gtop			G4			Hshort			Hlong			Htop			H4			I1			I2			I3			I4			I5			WandAshort			WandAlong			WandAtop			WandA4			WandA15			WandBshort			WandB4			WandB5			WandBtop			WandBlong			WandCshort			WandClong			WandCtop			WandC4			WandC5			Acenter			Aantenna			Bcenter			Bantenna			Ccenter			Cantenna			Dcenter			Dantenna			Ecenter			Eantenna			Fcenter			Fantenna			Gcenter			Gantenna			Hcenter			Hantenna			Icenter			Iantenna			
		X1	Y1	Z1	X2	Y2	Z2	X3	Y3	Z3	X4	Y4	Z4	X5	Y5	Z5	X6	Y6	Z6	X7	Y7	Z7	X8	Y8	Z8	X9	Y9	Z9	X10	Y10	Z10	X11	Y11	Z11	X12	Y12	Z12	X13	Y13	Z13	X14	Y14	Z14	X15	Y15	Z15	X16	Y16	Z16	X17	Y17	Z17	X18	Y18	Z18	X19	Y19	Z19	X20	Y20	Z20	X21	Y21	Z21	X22	Y22	Z22	X23	Y23	Z23	X24	Y24	Z24	X25	Y25	Z25	X26	Y26	Z26	X27	Y27	Z27	X28	Y28	Z28	X29	Y29	Z29	X30	Y30	Z30	X31	Y31	Z31	X32	Y32	Z32	X33	Y33	Z33	X34	Y34	Z34	X35	Y35	Z35	X36	Y36	Z36	X37	Y37	Z37	X38	Y38	Z38	X39	Y39	Z39	X40	Y40	Z40	X41	Y41	Z41	X42	Y42	Z42	X43	Y43	Z43	X44	Y44	Z44	X45	Y45	Z45	X46	Y46	Z46	X47	Y47	Z47	X48	Y48	Z48	X49	Y49	Z49	X50	Y50	Z50	X51	Y51	Z51	X52	Y52	Z52	X53	Y53	Z53	X54	Y54	Z54	X55	Y55	Z55	X56	Y56	Z56	X57	Y57	Z57	X58	Y58	Z58	X59	Y59	Z59	X60	Y60	Z60	X61	Y61	Z61	X62	Y62	Z62	X63	Y63	Z63	X64	Y64	Z64	X65	Y65	Z65	X66	Y66	Z66	X67	Y67	Z67	X68	Y68	Z68	X69	Y69	Z69	X70	Y70	Z70	
986	8.2083333	-1038.2374	214.50381	-1644.1273	-1109.3804	204.26865	-1599.3317	-1063.9829	172.59599	-1625.3845	-1054.16	262.37241	-1634.9491	-1352.7933	235.26086	1003.5439	-1281.3982	227.2234	1052.4148	-1322.7178	193.90282	1020.837	-1284.7087	287.97498	1052.7671	813.90912	187.75154	1209.5657	892.15448	178.6712	1179.1736	844.53882	145.25218	1198.415	860.91534	292.54211	1168.5352	1115.7473	209.56615	-1401.5341	1056.1066	194.19008	-1460.4338	1094.7687	161.90295	-1423.9871	1069.849	238.66426	-1425.748	-1204.5739	1685.9811	-1563.1638	-1129.115	1688.353	-1606.0577	-1173.1959	1724.4897	-1581.9048	-1134.0477	1581.0409	-1603.9211	-1239.7153	1699.2759	1119.6084	-1308.2755	1699.2677	1068.2319	-1268.9951	1737.4044	1094.3171	-1244.8334	1594.0833	1106.0933	988.90314	1664.274	1162.2657	957.51038	1700.343	1183.8829	922.97552	1662.0458	1215.0897	939.78394	1659.444	1159.869	998.90222	1668.5209	-1579.5496	1058.7173	1670.0079	-1518.723	1024.931	1708.0609	-1551.1954	1059.2059	1672.1586	-1585.5288	-209.81416	1637.0039	-265.38361	-216.73563	1638.506	-181.21251	-213.57225	1674.446	-228.37483	-245.03917	1635.5699	-231.30501	-164.59557	1640.4242	-225.4165																																														-1068.9862	210.08005	-1624.7661	-1074.1454	248.73203	-1624.1283	-1321.354	231.72153	1025.0643	-1319.9573	270.45526	1029.3942	848.17126	183.77541	1196.2574	851.8269	222.54295	1194.0862	1088.5941	202.56572	-1428.35	1082.7717	240.90858	-1432.464	-1171.9169	1687.0076	-1581.7274	-1170.5868	1648.0306	-1581.543	-1270.6	1699.2722	1096.4645	-1272.2372	1660.3682	1098.6556	953.20789	1705.2861	1186.8456	972.90973	1733.4652	1168.4395	1026.3484	1669.2031	-1551.639	1027.7698	1630.2316	-1552.0842	-212.9158	1637.677	-227.66469	-212.2198	1598.6904	-226.91173
987	8.2166667	-1038.2461	214.55682	-1644.1543	-1109.3751	204.25862	-1599.3557	-1063.9464	172.59846	-1625.4175	-1054.2023	262.35577	-1634.9386	-1352.7501	235.16197	1003.4805	-1281.4404	227.21902	1052.4634	-1322.6508	194.05112	1020.8529	-1284.696	287.97549	1052.7485	813.9068	187.8653	1209.4861	892.66278	179.3017	1178.6201	844.54639	145.43611	1198.2418	860.99664	292.71417	1168.5529	1115.7369	209.541	-1401.5168	1055.9939	194.1073	-1460.3688	1094.709	161.83818	-1423.9994	1069.8419	238.66832	-1425.7253	-1204.5668	1685.9707	-1563.1786	-1129.1173	1688.3621	-1606.0704	-1173.1884	1724.4988	-1581.9093	-1134.0525	1581.037	-1603.9407	-1239.6215	1699.1392	1119.5635	-1309.144	1698.3585	1071.8098	-1268.7092	1737.7262	1094.0101	-1244.8761	1593.9945	1106.0312	988.90308	1664.2706	1162.2283	957.57239	1700.2952	1183.9309	923.03986	1662.0159	1215.1737	939.82367	1659.4247	1159.9116	998.94196	1668.5079	-1579.5327	1058.6896	1669.9935	-1518.7296	1024.9309	1708.0636	-1551.1949	1059.2078	1672.1604	-1585.5135	-209.82751	1636.9806	-265.35648	-216.80487	1638.4738	-181.28879	-213.58406	1674.4395	-228.37865	-245.00577	1635.5378	-231.30157	-164.59972	1640.4248	-225.40366																																														-1068.9845	210.10645	-1624.7944	-1074.1757	248.75407	-1624.1527	-1321.3457	231.66394	1025.0522	-1320.0017	270.40012	1029.3768	847.93726	184.16496	1196.1489	851.33398	222.96014	1194.0522	1088.4934	202.50304	-1428.3539	1082.6335	240.84111	-1432.4592	-1171.9066	1687.0057	-1581.7451	-1170.5743	1648.0289	-1581.5747	-1271.0132	1698.7865	1098.0009	-1273.3048	1660.0569	1101.9703	953.23242	1705.2853	1186.937	972.90924	1733.4844	1168.5349	1026.3505	1669.1893	-1551.6399	1027.7736	1630.2178	-1552.0861	-212.95512	1637.6498	-227.673	-212.2886	1598.6626	-226.92522
988	8.225	-1038.2463	214.52786	-1644.1263	-1109.3749	204.17096	-1599.3331	-1063.7827	173.09663	-1625.6659	-1054.1702	262.33365	-1634.9424	-1352.8687	235.18568	1003.5594	-1281.3085	227.20587	1052.2877	-1322.701	193.97783	1020.9154	-1284.7264	287.98462	1052.7212	813.91779	187.81415	1209.5684	892.40295	178.60944	1179.1936	844.5011	145.40842	1198.4039	860.86359	292.49448	1168.5575	1115.7499	209.59738	-1401.5424	1056.0209	194.09854	-1460.3521	1094.715	161.946	-1424.0221	1069.8754	238.66663	-1425.7443	-1204.5684	1685.9634	-1563.1742	-1129.1294	1688.3641	-1606.0717	-1173.2103	1724.4568	-1581.8914	-1134.0493	1581.0271	-1603.9252	-1239.6621	1699.2141	1119.5869	-1309.1337	1698.4025	1071.8257	-1268.6677	1737.7207	1094.0482	-1244.8973	1593.8744	1106.0537	988.9209	1664.2705	1162.2385	957.1579	1700.5874	1183.8597	922.96515	1661.9777	1215.1565	939.78198	1659.3979	1159.9227	998.93475	1668.5229	-1579.5554	1058.7084	1670.0007	-1518.7212	1024.9402	1708.0736	-1551.203	1059.2126	1672.1663	-1585.5186	-209.83585	1636.9824	-265.35272	-216.73341	1638.5012	-181.21193	-213.57788	1674.4526	-228.37581	-245.23111	1635.6953	-231.28795	-164.59033	1640.416	-225.40947																																														-1068.7125	210.09172	-1624.9403	-1073.863	248.74271	-1624.1823	-1321.312	231.66675	1025.0475	-1319.8843	270.40845	1029.295	848.19043	183.79465	1196.3044	851.91608	222.55835	1194.1842	1088.4846	202.52245	-1428.3878	1082.5988	240.85452	-1432.5122	-1171.929	1687.002	-1581.7341	-1170.5957	1648.0251	-1581.5707	-1270.9724	1698.8483	1098.0612	-1273.2686	1660.1217	1102.059	953.06085	1705.2716	1186.6484	972.64252	1733.4409	1168.0999	1026.3547	1669.2008	-1551.6487	1027.7733	1630.2291	-1552.0957	-212.92589	1637.6627	-227.65831	-212.23497	1598.6763	-226.89799
989	8.2333333	-1038.2549	214.63264	-1644.1886	-1109.3645	204.25903	-1599.3363	-1063.8185	172.64352	-1625.4442	-1054.1672	262.3515	-1634.9363	-1352.8755	235.06067	1003.5187	-1281.4214	227.16144	1052.5151	-1322.7212	194.01155	1020.8914	-1284.6357	287.98758	1052.6962	813.95099	187.80998	1209.5696	892.14484	178.62917	1179.1709	844.49554	145.31317	1198.3774	860.84027	292.57477	1168.0837	1115.7354	209.60706	-1401.5232	1056.1427	194.20901	-1460.4572	1094.7034	161.86562	-1423.9679	1069.9086	238.71144	-1425.7289	-1204.5616	1685.9647	-1563.1755	-1129.1123	1688.3601	-1606.0537	-1173.2084	1724.4597	-1581.8898	-1134.0466	1581.0432	-1603.9404	-1239.709	1699.2734	1119.5975	-1309.166	1698.4482	1071.8401	-1268.9637	1737.4828	1094.2487	-1244.9362	1593.6777	1106.1228	988.91724	1664.274	1162.2551	957.49298	1700.3489	1183.9817	922.97437	1662.0227	1215.1189	939.76508	1659.4185	1159.9282	998.93738	1668.5237	-1579.5724	1058.8113	1670.1632	-1518.7122	1024.9398	1708.0739	-1551.2012	1059.2092	1672.2097	-1585.6243	-209.82764	1636.9968	-265.36917	-216.81653	1638.4893	-181.28763	-213.57486	1674.4309	-228.37344	-245.05817	1635.578	-231.2903	-164.6107	1640.3931	-225.37013																																														-1068.916	210.15971	-1624.8491	-1074.1663	248.79985	-1624.2362	-1321.437	231.58514	1025.0762	-1320.1129	270.32312	1029.3906	848.18945	183.78999	1196.2589	851.91101	222.55333	1194.1246	1088.5615	202.58566	-1428.3966	1082.7783	240.92838	-1432.5668	-1171.9244	1687.0007	-1581.7233	-1170.5886	1648.024	-1581.5502	-1271.0958	1698.9005	1098.0164	-1273.2377	1660.1437	1101.8011	953.18359	1705.2959	1186.9611	972.87982	1733.5096	1168.6023	1026.4323	1669.2765	-1551.6244	1027.9315	1630.3075	-1552.0496	-212.9612	1637.6659	-227.66991	-212.31047	1598.6785	-226.92386
